#!OML:ASF F:\VICON\USERDATA\INSTALL\rory3\rory3.ASF
:FULLY-SPECIFIED
:DEGREES
95
root -12.696 17.6902 1.96544 -5.24942 -2.78565 5.51851
lowerback 10.2681 0.872004 -5.60141
upperback 1.12482 0.477455 -0.941185
thorax -4.62541 0.330719 2.10305
lowerneck -20.1417 -4.93205 -12.3433
upperneck 29.5576 -5.5437 8.21866
head 14.07 -2.69903 4.43315
rclavicle 8.40486e-015 2.44505e-014
rhumerus -36.2154 -14.5566 -80.754
rradius 28.5428
rwrist 6.7869
rhand -16.2354 10.0128
rfingers 7.12502
rthumb 9.97302 -19.731
lclavicle 8.40486e-015 2.44505e-014
lhumerus -34.5954 4.1398 83.129
lradius 36.9636
lwrist -3.87725
lhand -17.4288 26.8242
lfingers 7.12502
lthumb 8.82152 56.6198
rfemur -20.7189 -6.4728 13.0365
rtibia 64.3724
rfoot -8.50772 -2.54278
rtoes 7.6197
lfemur -0.507558 0.562535 -31.1819
ltibia 20.8561
lfoot -10.3359 -4.75489
ltoes 1.36141
96
root -12.6983 17.6694 2.09835 -5.2459 -2.49179 5.67225
lowerback 10.2731 0.782947 -5.83111
upperback 1.16029 0.335724 -0.915116
thorax -4.58136 0.263473 2.27967
lowerneck -20.1316 -4.90692 -12.3663
upperneck 29.4253 -5.49212 8.22011
head 14.0041 -2.67679 4.44207
rclavicle -8.75895e-015 1.51076e-014
rhumerus -36.3592 -14.4447 -80.7118
rradius 28.665
rwrist 6.67269
rhand -16.3132 9.60773
rfingers 7.12502
rthumb 9.898 -20.1396
lclavicle -8.75895e-015 1.51076e-014
lhumerus -34.321 3.93584 83.1959
lradius 37.5067
lwrist -3.59785
lhand -17.4603 26.82
lfingers 7.12502
lthumb 8.79122 56.6169
rfemur -21.4789 -6.51054 12.8609
rtibia 63.1386
rfoot -8.78666 -3.00867
rtoes 5.70549
lfemur -0.222712 0.505775 -31.4032
ltibia 21.1897
lfoot -10.9046 -4.6568
ltoes 0.783567
97
root -12.7028 17.6518 2.22656 -5.19497 -2.17056 5.84461
lowerback 10.3852 0.717021 -6.07593
upperback 1.10222 0.209717 -0.91406
thorax -4.69559 0.210085 2.4355
lowerneck -19.983 -4.90942 -12.3643
upperneck 29.3009 -5.49691 8.18317
head 13.9175 -2.6842 4.42097
rclavicle -1.30639e-014 -1.23246e-014
rhumerus -36.6272 -14.3722 -80.6093
rradius 28.8012
rwrist 6.53815
rhand -16.3009 9.22082
rfingers 7.12502
rthumb 9.90982 -20.5259
lclavicle -1.30639e-014 -1.23246e-014
lhumerus -34.094 3.54345 83.251
lradius 37.87
lwrist -3.41951
lhand -17.6865 26.3131
lfingers 7.12502
lthumb 8.57287 56.1191
rfemur -22.2451 -6.45416 12.6862
rtibia 61.7614
rfoot -9.01623 -3.50173
rtoes 5.42928
lfemur 0.120235 0.41957 -31.618
ltibia 21.3484
lfoot -11.3471 -4.79148
ltoes 0.559381
98
root -12.7061 17.6405 2.35332 -5.0771 -1.86973 5.9525
lowerback 10.4182 0.629852 -6.21605
upperback 1.04904 0.0724647 -0.928973
thorax -4.75826 0.147846 2.51804
lowerneck -19.9909 -4.92436 -12.3034
upperneck 29.3276 -5.52846 8.14397
head 13.9313 -2.69651 4.38933
rclavicle -4.85159e-015 5.36719e-015
rhumerus -36.7374 -14.2712 -80.5923
rradius 28.8197
rwrist 6.43396
rhand -16.09 9.18023
rfingers 7.12502
rthumb 10.1133 -20.5567
lclavicle -4.85159e-015 5.36719e-015
lhumerus -33.9313 3.07788 83.2688
lradius 38.4373
lwrist -3.09575
lhand -17.9465 26.3609
lfingers 7.12502
lthumb 8.32192 56.177
rfemur -23.0016 -6.37642 12.5817
rtibia 60.232
rfoot -9.15392 -4.02631
rtoes 6.54823
lfemur 0.490269 0.253558 -31.7685
ltibia 21.2955
lfoot -11.5758 -4.90084
ltoes 1.33829
99
root -12.7082 17.631 2.48735 -5.00408 -1.65031 6.00822
lowerback 10.3288 0.51711 -6.31846
upperback 1.11133 -0.0777842 -0.903743
thorax -4.62907 0.0709576 2.62363
lowerneck -20.2714 -4.90522 -12.214
upperneck 29.4287 -5.46128 8.02748
head 14.0194 -2.66897 4.34072
rclavicle -4.46644e-015 -1.45113e-014
rhumerus -36.6984 -14.062 -80.6517
rradius 28.8974
rwrist 6.3829
rhand -15.9701 9.23733
rfingers 7.12502
rthumb 10.229 -20.494
lclavicle -4.46644e-015 -1.45113e-014
lhumerus -33.6428 2.92577 83.2206
lradius 39.0012
lwrist -2.94054
lhand -17.8485 26.6932
lfingers 7.12502
lthumb 8.41656 56.5055
rfemur -23.6275 -6.19677 12.5066
rtibia 58.566
rfoot -9.29083 -4.60237
rtoes 6.80284
lfemur 1.04356 0.195811 -31.866
ltibia 21.0141
lfoot -11.6883 -4.97171
ltoes 1.92536
100
root -12.7078 17.6217 2.62469 -4.99766 -1.45706 6.20564
lowerback 10.2251 0.459514 -6.52559
upperback 1.22828 -0.164745 -0.919536
thorax -4.43961 0.0235119 2.73549
lowerneck -20.4787 -4.91982 -12.1806
upperneck 29.3867 -5.42904 7.92408
head 14.0373 -2.66001 4.2954
rclavicle -1.62134e-014 1.23246e-014
rhumerus -36.6847 -13.9846 -80.6482
rradius 29.0451
rwrist 6.27065
rhand -15.8483 9.03532
rfingers 7.12502
rthumb 10.3465 -20.6902
lclavicle -1.62134e-014 1.23246e-014
lhumerus -33.1801 2.79853 83.1993
lradius 39.3458
lwrist -2.8441
lhand -18.0631 26.6501
lfingers 7.12502
lthumb 8.20947 56.4706
rfemur -24.1199 -5.94373 12.2242
rtibia 56.7663
rfoot -9.61595 -4.88548
rtoes 5.79894
lfemur 1.76127 0.228206 -32.1071
ltibia 20.5942
lfoot -11.7904 -5.14183
ltoes 2.7315
101
root -12.708 17.6198 2.7618 -4.95349 -1.22338 6.3992
lowerback 10.128 0.412579 -6.66827
upperback 1.27512 -0.235371 -0.977494
thorax -4.3291 -0.0137615 2.76426
lowerneck -20.4373 -4.96251 -12.2704
upperneck 29.3033 -5.501 8.0456
head 14.0093 -2.68419 4.34505
rclavicle -6.36111e-015 9.14409e-015
rhumerus -36.6771 -14.2003 -80.517
rradius 28.9197
rwrist 6.27482
rhand -15.7876 8.92035
rfingers 7.12502
rthumb 10.405 -20.8022
lclavicle -6.36111e-015 9.14409e-015
lhumerus -32.8463 2.62511 83.1425
lradius 39.6721
lwrist -2.77669
lhand -18.3432 26.1972
lfingers 7.12502
lthumb 7.93914 56.0281
rfemur -24.5778 -5.7406 11.9377
rtibia 54.8371
rfoot -9.77781 -4.99799
rtoes 5.45955
lfemur 2.51434 0.259702 -32.3332
ltibia 20.071
lfoot -12.0117 -5.34246
ltoes 2.77175
102
root -12.715 17.6203 2.89541 -4.87321 -1.00469 6.4286
lowerback 10.1626 0.354408 -6.75671
upperback 1.18709 -0.328312 -0.956453
thorax -4.43145 -0.0527591 2.84885
lowerneck -20.2649 -4.92897 -12.3617
upperneck 29.2995 -5.47604 8.14819
head 13.9739 -2.67344 4.40879
rclavicle 9.4547e-015 2.26615e-014
rhumerus -36.9319 -14.317 -80.3426
rradius 28.8275
rwrist 6.33028
rhand -15.7971 9.09652
rfingers 7.12502
rthumb 10.3959 -20.6265
lclavicle 9.4547e-015 2.26615e-014
lhumerus -32.8082 2.46542 83.0358
lradius 40.1139
lwrist -2.69797
lhand -18.3069 26.0625
lfingers 7.12502
lthumb 7.97417 55.8921
rfemur -25.0037 -5.34074 11.8744
rtibia 52.7862
rfoot -9.58806 -5.62314
rtoes 6.69303
lfemur 3.23157 0.20014 -32.3549
ltibia 19.4699
lfoot -12.1693 -5.38105
ltoes 2.424
103
root -12.7182 17.6154 3.02573 -4.76808 -0.797043 6.55776
lowerback 10.2099 0.313881 -6.9148
upperback 1.11164 -0.407922 -0.968593
thorax -4.52852 -0.0844503 2.93615
lowerneck -20.2734 -4.91669 -12.3206
upperneck 29.334 -5.45163 8.08359
head 13.9837 -2.66721 4.38065
rclavicle 1.07965e-014 3.77691e-015
rhumerus -37.2021 -14.4238 -80.2072
rradius 28.9473
rwrist 6.29585
rhand -15.8622 8.97709
rfingers 7.12502
rthumb 10.333 -20.7491
lclavicle 1.07965e-014 3.77691e-015
lhumerus -32.7349 2.33904 82.956
lradius 40.5555
lwrist -2.77064
lhand -18.418 25.8197
lfingers 7.12502
lthumb 7.86693 55.6533
rfemur -25.3946 -4.90465 11.6416
rtibia 50.6126
rfoot -9.36523 -6.60147
rtoes 7.38165
lfemur 3.90972 0.151345 -32.5043
ltibia 18.8849
lfoot -12.3001 -5.39869
ltoes 1.85587
104
root -12.7218 17.6097 3.15883 -4.69373 -0.603536 6.60039
lowerback 10.1795 0.285384 -6.9618
upperback 1.11785 -0.447774 -0.964732
thorax -4.50055 -0.104245 2.97186
lowerneck -20.2191 -4.9585 -12.3151
upperneck 29.2104 -5.51266 8.07572
head 13.9263 -2.69269 4.36043
rclavicle 4.39811e-015 2.88238e-014
rhumerus -37.3145 -14.6452 -80.0557
rradius 29.0254
rwrist 6.31394
rhand -15.9333 8.72323
rfingers 7.12502
rthumb 10.2645 -21.0063
lclavicle 4.39811e-015 2.88238e-014
lhumerus -32.4746 2.10926 82.9247
lradius 40.8868
lwrist -2.7476
lhand -18.932 24.6679
lfingers 7.12502
lthumb 7.37076 54.5195
rfemur -25.6568 -4.46642 11.4974
rtibia 48.3296
rfoot -8.95652 -7.5194
rtoes 6.83483
lfemur 4.64009 0.0673993 -32.5545
ltibia 18.326
lfoot -12.4321 -5.47325
ltoes 1.9054
105
root -12.7314 17.6085 3.29292 -4.64832 -0.345958 6.47074
lowerback 10.1693 0.227145 -6.87786
upperback 1.15682 -0.509998 -0.908254
thorax -4.4475 -0.138568 2.99239
lowerneck -20.2513 -4.99572 -12.3188
upperneck 29.1726 -5.55977 8.0775
head 13.9236 -2.71172 4.35147
rclavicle 8.07563e-016 -5.36719e-015
rhumerus -37.3569 -14.7764 -79.9597
rradius 28.9989
rwrist 6.21427
rhand -15.9166 8.66208
rfingers 7.12502
rthumb 10.2806 -21.0667
lclavicle 8.07563e-016 -5.36719e-015
lhumerus -32.1597 1.88842 82.8956
lradius 41.1972
lwrist -2.67219
lhand -19.6947 23.2415
lfingers 7.12502
lthumb 6.63456 53.1175
rfemur -25.794 -3.99483 11.5366
rtibia 45.9416
rfoot -8.18277 -8.26583
rtoes 6.68962
lfemur 5.43108 -0.0419823 -32.3873
ltibia 17.7164
lfoot -12.4289 -5.65236
ltoes 2.17295
106
root -12.7392 17.6067 3.42365 -4.58518 -0.00821162 6.48552
lowerback 10.1711 0.138743 -6.94356
upperback 1.18673 -0.632492 -0.894522
thorax -4.40363 -0.199846 3.06029
lowerneck -20.2892 -4.98866 -12.2929
upperneck 29.1235 -5.55933 8.10376
head 13.9101 -2.70323 4.35604
rclavicle -7.0817e-016 -1.39149e-015
rhumerus -37.3956 -14.9446 -79.8478
rradius 28.8739
rwrist 6.29835
rhand -15.8459 9.18721
rfingers 7.12502
rthumb 10.3488 -20.5381
lclavicle -7.0817e-016 -1.39149e-015
lhumerus -31.9475 1.62631 82.8372
lradius 41.6263
lwrist -2.48102
lhand -19.6059 23.3644
lfingers 7.12502
lthumb 6.7203 53.2378
rfemur -25.9543 -3.59765 11.3519
rtibia 43.49
rfoot -7.01651 -8.75582
rtoes 7.59056
lfemur 6.17304 -0.110784 -32.3768
ltibia 17.1594
lfoot -12.4742 -5.80935
ltoes 1.37419
107
root -12.7412 17.6048 3.55452 -4.53116 0.338362 6.58404
lowerback 10.1752 0.0765125 -7.04919
upperback 1.23057 -0.724711 -0.892102
thorax -4.34882 -0.246345 3.13446
lowerneck -20.3463 -5.01716 -12.3259
upperneck 29.0448 -5.58752 8.13712
head 13.8948 -2.71181 4.3671
rclavicle -3.67752e-015 -2.38542e-015
rhumerus -37.3632 -15.27 -79.5743
rradius 28.5425
rwrist 6.60446
rhand -16.0914 10.1232
rfingers 7.12502
rthumb 10.1119 -19.6138
lclavicle -3.67752e-015 -2.38542e-015
lhumerus -31.7011 1.4029 82.8389
lradius 42.0374
lwrist -2.38359
lhand -18.8898 24.5403
lfingers 7.12502
lthumb 7.4115 54.3904
rfemur -26.0567 -3.32761 11.0281
rtibia 40.9779
rfoot -5.48475 -8.86708
rtoes 7.09891
lfemur 6.84733 -0.345109 -32.4886
ltibia 16.7526
lfoot -12.4654 -6.02122
ltoes 3.58773
108
root -12.7463 17.5959 3.68836 -4.43367 0.677224 6.63408
lowerback 10.2048 0.0324982 -7.1031
upperback 1.1772 -0.792839 -0.864897
thorax -4.41323 -0.275283 3.20311
lowerneck -20.3606 -5.01976 -12.2442
upperneck 29.1109 -5.57801 8.00603
head 13.9176 -2.71651 4.30285
rclavicle 7.91411e-015 -2.38542e-015
rhumerus -37.5151 -15.5245 -79.2387
rradius 28.3676
rwrist 7.01986
rhand -16.3836 10.6189
rfingers 7.12502
rthumb 9.83004 -19.1317
lclavicle 7.91411e-015 -2.38542e-015
lhumerus -31.5551 1.31573 82.8599
lradius 42.361
lwrist -2.42367
lhand -18.5439 24.9284
lfingers 7.12502
lthumb 7.74543 54.7666
rfemur -26.0642 -2.96785 10.7493
rtibia 38.4621
rfoot -4.1276 -8.86473
rtoes 6.50607
lfemur 7.41119 -0.483059 -32.5052
ltibia 16.3946
lfoot -12.4541 -6.38505
ltoes 6.67333
